<?xml version="1.0" standalone="no"?>
<!DOCTYPE svg PUBLIC "-//W3C//DTD SVG 20010904//EN"
 "http://www.w3.org/TR/2001/REC-SVG-20010904/DTD/svg10.dtd">
<svg version="1.0" xmlns="http://www.w3.org/2000/svg"
 width="373.000000pt" height="373.000000pt" viewBox="0 0 373.000000 373.000000"
 preserveAspectRatio="xMidYMid meet">
<metadata>
Created by potrace 1.14, written by Peter Selinger 2001-2017
</metadata>
<g transform="translate(0.000000,373.000000) scale(0.100000,-0.100000)"
fill="#000000" stroke="none">
<path d="M1748 3652 c-21 -2 -38 -6 -38 -10 0 -4 60 -6 132 -4 545 14 1035
-215 1413 -658 105 -123 238 -368 294 -540 66 -205 86 -337 86 -572 0 -87 4
-158 8 -158 13 0 6 328 -9 419 -42 264 -108 450 -232 656 -264 442 -703 747
-1207 840 -104 19 -359 34 -447 27z"/>
<path d="M1615 3634 c-11 -3 -58 -12 -105 -20 -395 -73 -810 -335 -1050 -662
-201 -273 -310 -546 -350 -872 -9 -76 -13 -379 -5 -355 2 6 6 89 9 185 2 96 7
191 11 210 68 407 218 709 489 989 271 279 615 454 1011 516 44 7 64 13 45 13
-19 0 -44 -2 -55 -4z"/>
<path d="M1680 3544 c-370 -46 -722 -214 -978 -466 -430 -423 -604 -1038 -456
-1613 86 -334 265 -628 519 -851 453 -399 1081 -523 1655 -328 250 85 477 230
661 421 235 244 391 548 450 879 25 139 30 389 10 519 -114 744 -664 1305
-1406 1430 -128 22 -321 26 -455 9z"/>
<path d="M110 1705 c-3 -13 -3 -11 4 -74 33 -279 154 -572 345 -831 65 -88
240 -266 328 -333 119 -91 301 -194 438 -249 129 -52 452 -125 480 -109 6 3
-1 7 -15 9 -215 23 -441 91 -620 185 -525 276 -864 759 -949 1352 -5 33 -10
56 -11 50z"/>
<path d="M3632 1675 c-3 -46 -39 -222 -60 -295 -179 -599 -658 -1062 -1258
-1215 -146 -37 -278 -53 -446 -51 -83 0 -144 -3 -141 -8 9 -13 355 0 458 18
324 56 615 198 880 429 207 181 394 463 490 738 41 118 88 337 82 383 l-4 31
-1 -30z"/>
</g>
</svg>
